{"asset":{"version":"2.0","generator":"THREE.GLTFExporter"},"scenes":[{"name":"Trackers > Tagger","nodes":[59],"extras":{"visible":true,"opacity":0.3}}],"scene":0,"nodes":[{"name":"tagger_PV0x1af5d50","mesh":0},{"name":"tagger_sensor_vol_PV0x19b8910","mesh":1},{"name":"tagger_active_sensor0x1760540","mesh":2},{"children":[2]},{"matrix":[1,0,0,0,0,1,0,0,0,0,1,0,-0.0006000000000000001,0,29.700000000000003,1],"children":[1,3]},{"name":"tagger_sensor_vol_PV0x19b8ab0","mesh":3},{"name":"tagger_active_sensor0x1760540","mesh":4},{"children":[6]},{"matrix":[0.9950041652780257,-0.09983341664682861,0,0,0.09983341664682861,0.9950041652780257,0,0,0,0,1,0,-0.0006000000000000001,0,30.3,1],"children":[5,7]},{"name":"tagger_sensor_vol_PV0x19b8b80","mesh":5},{"name":"tagger_active_sensor0x1760540","mesh":6},{"children":[10]},{"matrix":[1,0,0,0,0,1,0,0,0,0,1,0,-0.06810000000000001,0,19.700000000000003,1],"children":[9,11]},{"name":"tagger_sensor_vol_PV0x19b8ca0","mesh":7},{"name":"tagger_active_sensor0x1760540","mesh":8},{"children":[14]},{"matrix":[0.9950041652780257,0.09983341664682861,0,0,-0.09983341664682861,0.9950041652780257,0,0,0,0,1,0,-0.06810000000000001,0,20.3,1],"children":[13,15]},{"name":"tagger_sensor_vol_PV0x19b8d50","mesh":9},{"name":"tagger_active_sensor0x1760540","mesh":10},{"children":[18]},{"matrix":[1,0,0,0,0,1,0,0,0,0,1,0,-0.2481,0,9.700000000000001,1],"children":[17,19]},{"name":"tagger_sensor_vol_PV0x19b8ea0","mesh":11},{"name":"tagger_active_sensor0x1760540","mesh":12},{"children":[22]},{"matrix":[0.9950041652780257,-0.09983341664682861,0,0,0.09983341664682861,0.9950041652780257,0,0,0,0,1,0,-0.2481,0,10.3,1],"children":[21,23]},{"name":"tagger_sensor_vol_PV0x17605a0","mesh":13},{"name":"tagger_active_sensor0x1760540","mesh":14},{"children":[26]},{"matrix":[1,0,0,0,0,1,0,0,0,0,1,0,-0.5407000000000001,0,-0.30000000000000004,1],"children":[25,27]},{"name":"tagger_sensor_vol_PV0x1760630","mesh":15},{"name":"tagger_active_sensor0x1760540","mesh":16},{"children":[30]},{"matrix":[0.9950041652780257,0.09983341664682861,0,0,-0.09983341664682861,0.9950041652780257,0,0,0,0,1,0,-0.5407000000000001,0,0.30000000000000004,1],"children":[29,31]},{"name":"tagger_sensor_vol_PV0x1760700","mesh":17},{"name":"tagger_active_sensor0x1760540","mesh":18},{"children":[34]},{"matrix":[1,0,0,0,0,1,0,0,0,0,1,0,-0.9461,0,-10.3,1],"children":[33,35]},{"name":"tagger_sensor_vol_PV0x1760900","mesh":19},{"name":"tagger_active_sensor0x1760540","mesh":20},{"children":[38]},{"matrix":[0.9950041652780257,-0.09983341664682861,0,0,0.09983341664682861,0.9950041652780257,0,0,0,0,1,0,-0.9461,0,-9.700000000000001,1],"children":[37,39]},{"name":"tagger_sensor_vol_PV0x1760980","mesh":21},{"name":"tagger_active_sensor0x1760540","mesh":22},{"children":[42]},{"matrix":[1,0,0,0,0,1,0,0,0,0,1,0,-1.4643000000000002,0,-20.3,1],"children":[41,43]},{"name":"tagger_sensor_vol_PV0x1760a60","mesh":23},{"name":"tagger_active_sensor0x1760540","mesh":24},{"children":[46]},{"matrix":[0.9950041652780257,0.09983341664682861,0,0,-0.09983341664682861,0.9950041652780257,0,0,0,0,1,0,-1.4643000000000002,0,-19.700000000000003,1],"children":[45,47]},{"name":"tagger_sensor_vol_PV0x1760ae0","mesh":25},{"name":"tagger_active_sensor0x1760540","mesh":26},{"children":[50]},{"matrix":[1,0,0,0,0,1,0,0,0,0,1,0,-2.0955,0,-30.3,1],"children":[49,51]},{"name":"tagger_sensor_vol_PV0x1760bc0","mesh":27},{"name":"tagger_active_sensor0x1760540","mesh":28},{"children":[54]},{"matrix":[0.9950041652780257,-0.09983341664682861,0,0,0.09983341664682861,0.9950041652780257,0,0,0,0,1,0,-2.0955,0,-29.700000000000003,1],"children":[53,55]},{"matrix":[1,0,0,0,0,1,0,0,0,0,1,0,0,0,-31.25,1],"children":[0,4,8,12,16,20,24,28,32,36,40,44,48,52,56]},{"children":[57]},{"children":[58]}],"bufferViews":[{"buffer":0,"byteOffset":0,"byteLength":432,"target":34962,"byteStride":12},{"buffer":0,"byteOffset":432,"byteLength":432,"target":34962,"byteStride":12},{"buffer":0,"byteOffset":864,"byteLength":432,"target":34962,"byteStride":12},{"buffer":0,"byteOffset":1296,"byteLength":432,"target":34962,"byteStride":12},{"buffer":0,"byteOffset":1728,"byteLength":432,"target":34962,"byteStride":12},{"buffer":0,"byteOffset":2160,"byteLength":432,"target":34962,"byteStride":12}],"buffers":[{"byteLength":2592,"uri":"data:application/octet-stream;base64,"}],"accessors":[{"bufferView":0,"componentType":5126,"count":36,"max":[21.5,17.5,30.350000381469727],"min":[-21.5,-17.5,-30.350000381469727],"type":"VEC3"},{"bufferView":1,"componentType":5126,"count":36,"max":[1,1,1],"min":[-1,-1,-1],"type":"VEC3"},{"bufferView":2,"componentType":5126,"count":36,"max":[2.0169999599456787,5,0.01600000075995922],"min":[-2.0169999599456787,-5,-0.01600000075995922],"type":"VEC3"},{"bufferView":3,"componentType":5126,"count":36,"max":[1,1,1],"min":[-1,-1,-1],"type":"VEC3"},{"bufferView":4,"componentType":5126,"count":36,"max":[1.9169950485229492,4.916500091552734,0.01600000075995922],"min":[-1.9169950485229492,-4.916500091552734,-0.01600000075995922],"type":"VEC3"},{"bufferView":5,"componentType":5126,"count":36,"max":[1,1,1],"min":[-1,-1,-1],"type":"VEC3"}],"materials":[{"pbrMetallicRoughness":{"baseColorFactor":[0.4,0.4,1,0.4],"metallicFactor":0.5,"roughnessFactor":0.5},"alphaMode":"BLEND"},{"pbrMetallicRoughness":{"baseColorFactor":[1,0.4,0,1],"metallicFactor":0.5,"roughnessFactor":0.5}},{"pbrMetallicRoughness":{"baseColorFactor":[1,0.4,0,1],"metallicFactor":0.5,"roughnessFactor":0.5}},{"pbrMetallicRoughness":{"baseColorFactor":[1,0.4,0,1],"metallicFactor":0.5,"roughnessFactor":0.5}},{"pbrMetallicRoughness":{"baseColorFactor":[1,0.4,0,1],"metallicFactor":0.5,"roughnessFactor":0.5}},{"pbrMetallicRoughness":{"baseColorFactor":[1,0.4,0,1],"metallicFactor":0.5,"roughnessFactor":0.5}},{"pbrMetallicRoughness":{"baseColorFactor":[1,0.4,0,1],"metallicFactor":0.5,"roughnessFactor":0.5}},{"pbrMetallicRoughness":{"baseColorFactor":[1,0.4,0,1],"metallicFactor":0.5,"roughnessFactor":0.5}},{"pbrMetallicRoughness":{"baseColorFactor":[1,0.4,0,1],"metallicFactor":0.5,"roughnessFactor":0.5}},{"pbrMetallicRoughness":{"baseColorFactor":[1,0.4,0,1],"metallicFactor":0.5,"roughnessFactor":0.5}},{"pbrMetallicRoughness":{"baseColorFactor":[1,0.4,0,1],"metallicFactor":0.5,"roughnessFactor":0.5}},{"pbrMetallicRoughness":{"baseColorFactor":[1,0.4,0,1],"metallicFactor":0.5,"roughnessFactor":0.5}},{"pbrMetallicRoughness":{"baseColorFactor":[1,0.4,0,1],"metallicFactor":0.5,"roughnessFactor":0.5}},{"pbrMetallicRoughness":{"baseColorFactor":[1,0.4,0,1],"metallicFactor":0.5,"roughnessFactor":0.5}},{"pbrMetallicRoughness":{"baseColorFactor":[1,0.4,0,1],"metallicFactor":0.5,"roughnessFactor":0.5}},{"pbrMetallicRoughness":{"baseColorFactor":[1,0.4,0,1],"metallicFactor":0.5,"roughnessFactor":0.5}},{"pbrMetallicRoughness":{"baseColorFactor":[1,0.4,0,1],"metallicFactor":0.5,"roughnessFactor":0.5}},{"pbrMetallicRoughness":{"baseColorFactor":[1,0.4,0,1],"metallicFactor":0.5,"roughnessFactor":0.5}},{"pbrMetallicRoughness":{"baseColorFactor":[1,0.4,0,1],"metallicFactor":0.5,"roughnessFactor":0.5}},{"pbrMetallicRoughness":{"baseColorFactor":[1,0.4,0,1],"metallicFactor":0.5,"roughnessFactor":0.5}},{"pbrMetallicRoughness":{"baseColorFactor":[1,0.4,0,1],"metallicFactor":0.5,"roughnessFactor":0.5}},{"pbrMetallicRoughness":{"baseColorFactor":[1,0.4,0,1],"metallicFactor":0.5,"roughnessFactor":0.5}},{"pbrMetallicRoughness":{"baseColorFactor":[1,0.4,0,1],"metallicFactor":0.5,"roughnessFactor":0.5}},{"pbrMetallicRoughness":{"baseColorFactor":[1,0.4,0,1],"metallicFactor":0.5,"roughnessFactor":0.5}},{"pbrMetallicRoughness":{"baseColorFactor":[1,0.4,0,1],"metallicFactor":0.5,"roughnessFactor":0.5}},{"pbrMetallicRoughness":{"baseColorFactor":[1,0.4,0,1],"metallicFactor":0.5,"roughnessFactor":0.5}},{"pbrMetallicRoughness":{"baseColorFactor":[1,0.4,0,1],"metallicFactor":0.5,"roughnessFactor":0.5}},{"pbrMetallicRoughness":{"baseColorFactor":[1,0.4,0,1],"metallicFactor":0.5,"roughnessFactor":0.5}},{"pbrMetallicRoughness":{"baseColorFactor":[1,0.4,0,1],"metallicFactor":0.5,"roughnessFactor":0.5}}],"meshes":[{"primitives":[{"mode":4,"attributes":{"POSITION":0,"NORMAL":1},"material":0}]},{"primitives":[{"mode":4,"attributes":{"POSITION":2,"NORMAL":3},"material":1}]},{"primitives":[{"mode":4,"attributes":{"POSITION":4,"NORMAL":5},"material":2}]},{"primitives":[{"mode":4,"attributes":{"POSITION":2,"NORMAL":3},"material":3}]},{"primitives":[{"mode":4,"attributes":{"POSITION":4,"NORMAL":5},"material":4}]},{"primitives":[{"mode":4,"attributes":{"POSITION":2,"NORMAL":3},"material":5}]},{"primitives":[{"mode":4,"attributes":{"POSITION":4,"NORMAL":5},"material":6}]},{"primitives":[{"mode":4,"attributes":{"POSITION":2,"NORMAL":3},"material":7}]},{"primitives":[{"mode":4,"attributes":{"POSITION":4,"NORMAL":5},"material":8}]},{"primitives":[{"mode":4,"attributes":{"POSITION":2,"NORMAL":3},"material":9}]},{"primitives":[{"mode":4,"attributes":{"POSITION":4,"NORMAL":5},"material":10}]},{"primitives":[{"mode":4,"attributes":{"POSITION":2,"NORMAL":3},"material":11}]},{"primitives":[{"mode":4,"attributes":{"POSITION":4,"NORMAL":5},"material":12}]},{"primitives":[{"mode":4,"attributes":{"POSITION":2,"NORMAL":3},"material":13}]},{"primitives":[{"mode":4,"attributes":{"POSITION":4,"NORMAL":5},"material":14}]},{"primitives":[{"mode":4,"attributes":{"POSITION":2,"NORMAL":3},"material":15}]},{"primitives":[{"mode":4,"attributes":{"POSITION":4,"NORMAL":5},"material":16}]},{"primitives":[{"mode":4,"attributes":{"POSITION":2,"NORMAL":3},"material":17}]},{"primitives":[{"mode":4,"attributes":{"POSITION":4,"NORMAL":5},"material":18}]},{"primitives":[{"mode":4,"attributes":{"POSITION":2,"NORMAL":3},"material":19}]},{"primitives":[{"mode":4,"attributes":{"POSITION":4,"NORMAL":5},"material":20}]},{"primitives":[{"mode":4,"attributes":{"POSITION":2,"NORMAL":3},"material":21}]},{"primitives":[{"mode":4,"attributes":{"POSITION":4,"NORMAL":5},"material":22}]},{"primitives":[{"mode":4,"attributes":{"POSITION":2,"NORMAL":3},"material":23}]},{"primitives":[{"mode":4,"attributes":{"POSITION":4,"NORMAL":5},"material":24}]},{"primitives":[{"mode":4,"attributes":{"POSITION":2,"NORMAL":3},"material":25}]},{"primitives":[{"mode":4,"attributes":{"POSITION":4,"NORMAL":5},"material":26}]},{"primitives":[{"mode":4,"attributes":{"POSITION":2,"NORMAL":3},"material":27}]},{"primitives":[{"mode":4,"attributes":{"POSITION":4,"NORMAL":5},"material":28}]}]}